<?xml version="1.0" encoding="UTF-8"?>
<svg
  version="1.1"
  xmlns="http://www.w3.org/2000/svg"
  xmlns:xlink="http://www.w3.org/1999/xlink"
  width="516" 
  height="500"
  viewBox="0 0 516 500"
>
  <!-- Background -->
  <path 
    id="background" 
    d="M0 0 C170.28 0 340.56 0 516 0 C516 165 516 330 516 500 C345.72 500 175.44 500 0 500 C0 335 0 170 0 0 Z"
    fill="#000000"
  />
  
  <!-- Inner Shape 1 -->
  <path 
    id="inner-shape-1"
    d="M0 0 C13.53412819 10.52654415 22.60504965 24.45586607 25.6640625 41.4609375 C27.66563337 57.63579399 24.98152223 75.15161532 14.97265625 88.46484375 C5.08668451 100.1239591 -5.6912634 110.90297541 -16.49365234 121.70141602 C-18.14251109 123.35327278 -19.79116668 125.00533236 -21.43963623 126.65757751 ..."
    fill="#FDFDFD"
    transform="translate(364.90234375,116.03515625)"
  />
  
  <!-- Inner Shape 2 -->
  <path 
    id="inner-shape-2"
    d="M0 0 C4.19406961 1.92280443 7.07985411 4.79137788 10.296875 8.03125 C10.89050842 8.62296997 11.48414185 9.21468994 12.09576416 9.82434082 ..."
    fill="#030303"
    transform="translate(276,175)"
  />
  
  <!-- Inner Circle -->
  <path 
    id="inner-circle"
    d="M0 0 C1.0527713 -0.00686325 2.1055426 -0.0137265 3.19021606 -0.02079773 C6.66283741 -0.03906695 10.13500702 -0.03522792 13.60766602 -0.02954102 ..."
    fill="#FEFEFE"
    transform="translate(324.575927734375,342.595947265625)"
  />
  
  <!-- Smaller Inner Shape -->
  <path 
    id="smaller-inner-shape"
    d="M0 0 C7.33786669 7.54169632 10.6828228 15.00624409 10.61132812 25.50830078 C10.30597931 36.35081613 5.71835222 42.80789364 -1.75 50.3125 ..."
    fill="#010101"
    transform="translate(346.75,143.6875)"
  />
</svg>
